<!-- <svg width="1280" height="910" viewBox="0 0 1280 910" fill="none" xmlns="http://www.w3.org/2000/svg">
<g clip-path="url(#clip0_61_2)">
<rect width="1280" height="910" fill="#E6E6FA"/>
<path d="M1284.67 290.594C1306.03 260.135 1291.37 218.101 1254.17 217.504C1231.47 217.14 1208.07 219.582 1184.78 224.857C1135.08 236.113 1088.7 259.628 1052.91 291.716C1017.12 323.803 993.938 362.648 987.007 402.157C980.076 441.667 989.785 479.606 1014.61 510.025C1039.44 540.445 1077.98 561.623 1124.19 570.239C1170.4 578.856 1221.66 574.422 1269.94 557.634C1318.22 540.846 1360.78 512.653 1390.95 477.477C1402.38 464.154 1411.79 450.113 1419.03 435.699C1436.95 400.06 1401.64 368.342 1362.17 374.061L1338.16 377.54C1289.93 384.528 1256.69 330.494 1284.67 290.594V290.594Z" fill="#C1C1F3"/>
<path d="M409.411 818.131C439.682 863.663 502.581 876.662 537.825 834.86C555.975 813.333 571.615 789.542 584.379 763.904C612.11 708.204 625.383 645.559 622.988 581.677C620.594 517.794 602.609 454.705 570.671 398.158C538.734 341.61 493.859 293.402 440.137 257.925C386.414 222.448 325.55 200.83 263.092 195.041C200.633 189.253 138.565 199.477 82.5431 224.783C26.5208 250.089 -21.6749 289.672 -57.6527 339.925C-75.713 365.152 -90.4064 392.665 -101.472 421.78C-120.129 470.868 -82.9639 519.445 -31.2065 528.327L206.6 569.137C233.45 573.745 257.215 589.213 272.297 611.899L409.411 818.131Z" fill="#C1C1F3"/>
</g>
<defs>
<clipPath id="clip0_61_2">
<rect width="1280" height="910" fill="white"/>
</clipPath>
</defs>
</svg> -->

<svg width="1280" height="910" viewBox="0 0 1280 910" fill="none" xmlns="http://www.w3.org/2000/svg">
<g clip-path="url(#clip0_61_2)">
<rect width="1280" height="910" fill="#E6E6FA"/>
<path d="M1284.67 240.594C1306.03 210.135 1291.37 168.101 1254.17 167.504C1231.47 167.14 1208.07 169.582 1184.78 174.857C1135.08 186.113 1088.7 209.628 1052.91 241.716C1017.12 273.803 993.938 312.648 987.007 352.157C980.076 391.667 989.785 429.606 1014.61 460.025C1039.44 490.445 1077.98 511.623 1124.19 520.239C1170.4 528.856 1221.66 524.422 1269.94 507.634C1318.22 490.846 1360.78 462.653 1390.95 427.477C1402.38 414.154 1411.79 400.113 1419.03 385.699C1436.95 350.06 1401.64 318.342 1362.17 324.061L1338.16 327.54C1289.93 334.528 1256.69 280.494 1284.67 240.594V240.594Z" fill="#C1C1F3"/>
<path d="M409.411 768.131C439.682 813.663 502.581 826.662 537.825 784.86C555.975 763.333 571.615 739.542 584.379 713.904C612.11 658.204 625.383 595.559 622.988 531.677C620.594 467.794 602.609 404.705 570.671 348.158C538.734 291.61 493.859 243.402 440.137 207.925C386.414 172.448 325.55 150.83 263.092 145.041C200.633 139.253 138.565 149.477 82.5431 174.783C26.5208 200.089 -21.6749 239.672 -57.6527 289.925C-75.713 315.152 -90.4064 342.665 -101.472 371.78C-120.129 420.868 -82.9639 469.445 -31.2065 478.327L206.6 519.137C233.45 523.745 257.215 539.213 272.297 561.899L409.411 768.131Z" fill="#C1C1F3"/>
</g>
<defs>
<clipPath id="clip0_61_2">
<rect width="1280" height="910" fill="white"/>
</clipPath>
</defs>
</svg>

