<svg width="1280" height="2986" viewBox="0 0 1280 2986" fill="none" xmlns="http://www.w3.org/2000/svg">
<g clip-path="url(#clip0_48_2)">
<rect width="1280" height="2986" fill="#E6E6FA"/>
<path d="M1284.67 290.594C1306.03 260.135 1291.37 218.101 1254.17 217.504C1231.47 217.14 1208.07 219.582 1184.78 224.857C1135.08 236.113 1088.7 259.628 1052.91 291.716C1017.12 323.803 993.938 362.648 987.007 402.157C980.076 441.667 989.785 479.606 1014.61 510.025C1039.44 540.445 1077.98 561.623 1124.19 570.239C1170.4 578.856 1221.66 574.422 1269.94 557.634C1318.22 540.846 1360.78 512.653 1390.95 477.477C1402.38 464.154 1411.79 450.113 1419.03 435.699C1436.95 400.06 1401.64 368.342 1362.17 374.061L1338.16 377.54C1289.93 384.528 1256.69 330.494 1284.67 290.594Z" fill="#C1C1F3"/>
<path d="M304.906 1921.18C329.13 1876.64 311.53 1819.47 261.543 1810.98C229.689 1805.57 196.884 1805.12 164.35 1809.82C100.748 1819 41.3864 1847.42 -5.36197 1891.05C-52.1104 1934.69 -83.8873 1991.34 -96.2115 2053.03C-108.536 2114.71 -100.785 2178.31 -74.053 2234.86C-47.3209 2291.41 -2.95598 2338.05 52.7852 2368.21C108.526 2398.37 172.831 2410.53 236.631 2402.97C300.431 2395.4 360.507 2368.5 408.387 2326.05C432.797 2304.41 453.409 2279.29 469.601 2251.73C495.208 2208.14 462.689 2158.13 413.141 2148.1L323.891 2130.04C264.544 2118.03 233.75 2052.02 262.679 1998.83L304.906 1921.18Z" fill="#C1C1F3"/>
<path d="M409.411 818.132C439.682 863.663 502.581 876.662 537.825 834.86C555.975 813.333 571.615 789.542 584.379 763.904C612.11 708.204 625.383 645.559 622.988 581.677C620.594 517.794 602.609 454.705 570.671 398.158C538.734 341.61 493.859 293.402 440.137 257.925C386.414 222.448 325.55 200.83 263.092 195.041C200.633 189.253 138.565 199.477 82.5431 224.783C26.5208 250.089 -21.6749 289.672 -57.6527 339.925C-75.713 365.152 -90.4064 392.665 -101.472 421.78C-120.129 470.868 -82.9639 519.445 -31.2065 528.327L206.6 569.137C233.45 573.745 257.215 589.213 272.297 611.899L409.411 818.132Z" fill="#C1C1F3"/>
<path d="M1322.47 1749.14C1343.16 1710.2 1326.72 1660.52 1282.81 1656.39C1260.05 1654.25 1236.84 1655.42 1213.96 1659.98C1164.03 1669.95 1118.51 1695.55 1084.55 1732.76C1050.58 1769.97 1030.08 1816.7 1026.27 1865.61C1022.46 1914.52 1035.56 1962.84 1063.5 2003.01C1091.44 2043.17 1132.65 2072.9 1180.67 2087.54C1228.68 2102.17 1280.79 2100.88 1328.81 2083.87C1376.83 2066.86 1418.05 2035.08 1446.01 1993.54C1458.41 1975.1 1467.9 1955.2 1474.28 1934.52C1487.42 1891.9 1446.85 1857.83 1402.46 1862.15L1398.33 1862.55C1336.87 1868.52 1293.49 1803.67 1322.47 1749.14Z" fill="#C1C1F3"/>
</g>
<defs>
<clipPath id="clip0_48_2">
<rect width="1280" height="2986" fill="white"/>
</clipPath>
</defs>
</svg>
