<svg width="624" height="668" viewBox="0 0 624 668" fill="none" xmlns="http://www.w3.org/2000/svg">
<path d="M409.411 625.132C439.682 670.663 502.581 683.662 537.825 641.86C555.975 620.333 571.615 596.542 584.379 570.904C612.11 515.204 625.383 452.559 622.988 388.677C620.594 324.794 602.609 261.705 570.671 205.158C538.734 148.61 493.859 100.402 440.137 64.9246C386.414 29.4476 325.55 7.83005 263.092 2.04148C200.633 -3.74709 138.565 6.47736 82.5431 31.7833C26.5208 57.0892 -21.6749 96.672 -57.6527 146.925C-75.713 172.152 -90.4064 199.665 -101.472 228.78C-120.129 277.868 -82.9639 326.445 -31.2065 335.327L206.6 376.137C233.45 380.745 257.215 396.213 272.297 418.899L409.411 625.132Z" fill="#C1C1F3"/>
</svg>
