<svg width="255" height="443" viewBox="0 0 255 443" fill="none" xmlns="http://www.w3.org/2000/svg">
<path d="M297.467 94.1439C318.163 55.2037 301.718 5.51787 257.813 1.39217C235.048 -0.747033 211.84 0.41904 188.964 4.98438C139.033 14.9492 93.5146 40.5455 59.5467 77.7587C25.5787 114.972 5.083 161.697 1.27397 210.606C-2.53507 259.515 10.558 307.842 38.4998 348.006C66.4415 388.171 107.651 417.902 155.666 432.536C203.681 447.17 255.785 445.88 303.807 428.868C351.828 411.856 393.051 380.084 421.009 338.535C433.414 320.101 442.897 300.204 449.277 279.516C462.419 236.901 421.849 202.832 377.464 207.146L373.329 207.548C311.868 213.521 268.486 148.672 297.467 94.1439Z" fill="#C1C1F3"/>
</svg>
