<svg width="296" height="358" viewBox="0 0 296 358" fill="none" xmlns="http://www.w3.org/2000/svg">
<path d="M300.668 73.5945C322.029 43.1353 307.37 1.10119 270.172 0.5042C247.47 0.139866 224.068 2.5821 200.776 7.85743C151.082 19.1128 104.701 42.6283 68.9092 74.7157C33.1171 106.803 9.93795 145.648 3.0069 185.157C-3.92414 224.667 5.78502 262.606 30.6116 293.025C55.4382 323.445 93.978 344.623 140.187 353.239C186.395 361.856 237.659 357.422 285.937 340.634C334.216 323.846 376.779 295.653 406.951 260.477C418.38 247.154 427.785 233.113 435.031 218.699C452.948 183.06 417.643 151.342 378.167 157.061L354.159 160.54C305.929 167.528 272.686 113.494 300.668 73.5945Z" fill="#C1C1F3"/>
</svg>
