<svg width="479" height="600" viewBox="0 0 479 600" fill="none" xmlns="http://www.w3.org/2000/svg">
<path d="M304.906 115.183C329.13 70.6422 311.53 13.466 261.543 4.98004C229.689 -0.427663 196.885 -0.881191 164.35 3.81781C100.748 13.004 41.3867 41.4182 -5.36172 85.0534C-52.1102 128.689 -83.8871 185.343 -96.2112 247.027C-108.535 308.711 -100.785 372.312 -74.0528 428.861C-47.3207 485.41 -2.95573 532.054 52.7854 562.214C108.527 592.375 172.832 604.53 236.632 596.965C300.432 589.401 360.508 562.499 408.387 520.053C432.797 498.414 453.409 473.291 469.602 445.729C495.208 402.141 462.689 352.127 413.141 342.1L323.891 324.038C264.544 312.028 233.75 246.019 262.679 192.827L304.906 115.183Z" fill="#C1C1F3"/>
</svg>
