<svg width="168" height="85" viewBox="0 0 168 85" fill="none" xmlns="http://www.w3.org/2000/svg">
<path d="M9.07422 43.8242L13.5391 19.0918C13.5625 18.998 13.6211 18.9512 13.7148 18.9512H18.9355C19.0293 18.9512 19.0879 18.998 19.1113 19.0918L23.4004 43.8242C23.4121 43.9414 23.3652 44 23.2598 44H19.2695C19.1523 44 19.0879 43.9414 19.0762 43.8242L18.6895 41.1875H13.7852L13.3984 43.8242C13.3867 43.9414 13.3281 44 13.2227 44H9.21484C9.12109 44 9.07422 43.9414 9.07422 43.8242ZM16.123 27.2305L14.5059 37.3379H17.9688L16.4922 27.2305L16.2812 25.8945L16.123 27.2305ZM31.5391 43.9648L25.0879 44C24.9707 44 24.9121 43.9414 24.9121 43.8242L24.9824 19.0918C24.9824 18.998 25.0293 18.9512 25.123 18.9512L31.8555 18.916C33.1914 18.8809 34.3984 19.1855 35.4766 19.8301C36.5664 20.4746 37.4336 21.3477 38.0781 22.4492C38.7344 23.5391 39.0625 24.7461 39.0625 26.0703V36.4062C39.0625 37.7891 38.7285 39.0547 38.0605 40.2031C37.3809 41.3398 36.4785 42.248 35.3535 42.9277C34.2285 43.5957 32.957 43.9414 31.5391 43.9648ZM31.8555 23.2227L29.3418 23.2578L29.3066 39.5703H31.5391C32.4297 39.5703 33.1797 39.2598 33.7891 38.6387C34.3984 38.0176 34.7031 37.2734 34.7031 36.4062V26.0352C34.7031 25.2734 34.4219 24.6113 33.8594 24.0488C33.2969 23.4746 32.6289 23.1992 31.8555 23.2227ZM46.1113 44H42.0332C41.9395 44 41.8926 43.9414 41.8926 43.8242L41.9629 19.0918C41.9629 18.998 42.0098 18.9512 42.1035 18.9512H49.3809C50.6816 18.9512 51.877 19.2676 52.9668 19.9004C54.0566 20.5332 54.9238 21.3828 55.5684 22.4492C56.2246 23.5156 56.5527 24.7227 56.5527 26.0703C56.5527 26.9492 56.418 27.7461 56.1484 28.4609C55.8789 29.1758 55.5625 29.7793 55.1992 30.2715C54.8477 30.7637 54.5254 31.127 54.2324 31.3613C55.5332 32.8027 56.1836 34.4961 56.1836 36.4414L56.2188 43.8242C56.2188 43.9414 56.1602 44 56.043 44H51.9648C51.8711 44 51.8242 43.9648 51.8242 43.8945V36.4414C51.8242 35.5742 51.5195 34.8242 50.9102 34.1914C50.3008 33.5586 49.5508 33.2422 48.6602 33.2422H46.2871L46.252 43.8242C46.252 43.9414 46.2051 44 46.1113 44ZM49.3809 23.2578H46.2871V28.918H49.3809C50.1191 28.918 50.7754 28.6426 51.3496 28.0918C51.9355 27.541 52.2285 26.8672 52.2285 26.0703C52.2285 25.3086 51.9473 24.6523 51.3848 24.1016C50.8223 23.5391 50.1543 23.2578 49.3809 23.2578ZM66.7656 44H62.6348C62.5527 44 62.5117 43.9531 62.5117 43.8594L62.5469 33.6289L57.7305 19.0918C57.707 18.998 57.7422 18.9512 57.8359 18.9512H61.8438C61.9609 18.9512 62.0312 18.998 62.0547 19.0918L64.709 28.7773L67.416 19.0918C67.4395 18.998 67.498 18.9512 67.5918 18.9512H71.6348C71.7285 18.9512 71.7637 18.998 71.7402 19.0918L66.8711 33.4883L66.9062 43.8594C66.9062 43.9531 66.8594 44 66.7656 44ZM85.4863 44H73.8496C73.7559 44 73.709 43.9414 73.709 43.8242L73.7441 19.0918C73.7441 18.998 73.791 18.9512 73.8848 18.9512H85.4512C85.5449 18.9512 85.5918 19.0098 85.5918 19.127V23.1523C85.5918 23.2461 85.5449 23.293 85.4512 23.293H78.0684V28.918H85.4512C85.5449 28.918 85.5918 28.9648 85.5918 29.0586L85.627 33.1367C85.627 33.2305 85.5801 33.2773 85.4863 33.2773H78.0684V39.5703H85.4863C85.5801 39.5703 85.627 39.6289 85.627 39.7461V43.8594C85.627 43.9531 85.5801 44 85.4863 44ZM100.604 44H88.9668C88.873 44 88.8262 43.9414 88.8262 43.8242L88.8613 19.127C88.8613 19.0098 88.9199 18.9512 89.0371 18.9512H93.0449C93.1621 18.9512 93.2207 19.0098 93.2207 19.127L93.1855 39.5703H100.604C100.721 39.5703 100.779 39.6289 100.779 39.7461V43.8242C100.779 43.9414 100.721 44 100.604 44ZM114.912 44H103.275C103.182 44 103.135 43.9414 103.135 43.8242L103.17 19.127C103.17 19.0098 103.229 18.9512 103.346 18.9512H107.354C107.471 18.9512 107.529 19.0098 107.529 19.127L107.494 39.5703H114.912C115.029 39.5703 115.088 39.6289 115.088 39.7461V43.8242C115.088 43.9414 115.029 44 114.912 44ZM129.221 44H117.584C117.49 44 117.443 43.9414 117.443 43.8242L117.479 19.0918C117.479 18.998 117.525 18.9512 117.619 18.9512H129.186C129.279 18.9512 129.326 19.0098 129.326 19.127V23.1523C129.326 23.2461 129.279 23.293 129.186 23.293H121.803V28.918H129.186C129.279 28.918 129.326 28.9648 129.326 29.0586L129.361 33.1367C129.361 33.2305 129.314 33.2773 129.221 33.2773H121.803V39.5703H129.221C129.314 39.5703 129.361 39.6289 129.361 39.7461V43.8594C129.361 43.9531 129.314 44 129.221 44Z" fill="#1C0A70"/>
<g filter="url(#filter0_d_96_140)">
<path d="M66.7051 75.8242L71.1699 51.0918C71.1934 50.998 71.252 50.9512 71.3457 50.9512H76.5664C76.6602 50.9512 76.7188 50.998 76.7422 51.0918L81.0312 75.8242C81.043 75.9414 80.9961 76 80.8906 76H76.9004C76.7832 76 76.7188 75.9414 76.707 75.8242L76.3203 73.1875H71.416L71.0293 75.8242C71.0176 75.9414 70.959 76 70.8535 76H66.8457C66.752 76 66.7051 75.9414 66.7051 75.8242ZM73.7539 59.2305L72.1367 69.3379H75.5996L74.123 59.2305L73.9121 57.8945L73.7539 59.2305ZM87.5 76H83.4219C83.3281 76 83.2812 75.9414 83.2812 75.8242L83.3516 51.0918C83.3516 50.998 83.3984 50.9512 83.4922 50.9512H90.7695C92.0703 50.9512 93.2656 51.2676 94.3555 51.9004C95.4453 52.5332 96.3125 53.3828 96.957 54.4492C97.6133 55.5156 97.9414 56.7227 97.9414 58.0703C97.9414 58.9492 97.8066 59.7461 97.5371 60.4609C97.2676 61.1758 96.9512 61.7793 96.5879 62.2715C96.2363 62.7637 95.9141 63.127 95.6211 63.3613C96.9219 64.8027 97.5723 66.4961 97.5723 68.4414L97.6074 75.8242C97.6074 75.9414 97.5488 76 97.4316 76H93.3535C93.2598 76 93.2129 75.9648 93.2129 75.8945V68.4414C93.2129 67.5742 92.9082 66.8242 92.2988 66.1914C91.6895 65.5586 90.9395 65.2422 90.0488 65.2422H87.6758L87.6406 75.8242C87.6406 75.9414 87.5938 76 87.5 76ZM90.7695 55.2578H87.6758V60.918H90.7695C91.5078 60.918 92.1641 60.6426 92.7383 60.0918C93.3242 59.541 93.6172 58.8672 93.6172 58.0703C93.6172 57.3086 93.3359 56.6523 92.7734 56.1016C92.2109 55.5391 91.543 55.2578 90.7695 55.2578ZM98.6973 75.8242L103.162 51.0918C103.186 50.998 103.244 50.9512 103.338 50.9512H108.559C108.652 50.9512 108.711 50.998 108.734 51.0918L113.023 75.8242C113.035 75.9414 112.988 76 112.883 76H108.893C108.775 76 108.711 75.9414 108.699 75.8242L108.312 73.1875H103.408L103.021 75.8242C103.01 75.9414 102.951 76 102.846 76H98.8379C98.7441 76 98.6973 75.9414 98.6973 75.8242ZM105.746 59.2305L104.129 69.3379H107.592L106.115 59.2305L105.904 57.8945L105.746 59.2305ZM121.9 76.3516C120.635 76.3516 119.463 76.0234 118.385 75.3672C117.307 74.7109 116.445 73.832 115.801 72.7305C115.168 71.6172 114.852 70.4043 114.852 69.0918L114.922 51.0918C114.922 50.998 114.969 50.9512 115.062 50.9512H119.105C119.199 50.9512 119.246 50.998 119.246 51.0918V69.0918C119.246 69.9004 119.504 70.5918 120.02 71.166C120.535 71.7285 121.162 72.0098 121.9 72.0098C122.674 72.0098 123.318 71.7285 123.834 71.166C124.35 70.5918 124.607 69.9004 124.607 69.0918V51.0918C124.607 50.998 124.654 50.9512 124.748 50.9512H128.791C128.885 50.9512 128.932 50.998 128.932 51.0918L129.002 69.0918C129.002 70.416 128.686 71.6348 128.053 72.748C127.408 73.8496 126.553 74.7285 125.486 75.3848C124.42 76.0293 123.225 76.3516 121.9 76.3516ZM137.738 76.3516C136.414 76.3516 135.213 76.0352 134.135 75.4023C133.068 74.7695 132.225 73.8965 131.604 72.7832C130.994 71.6582 130.689 70.4043 130.689 69.0215V67.3516C130.689 67.2578 130.736 67.2109 130.83 67.2109H134.908C135.002 67.2109 135.049 67.2754 135.049 67.4043V69.0215C135.049 69.9004 135.301 70.6211 135.805 71.1836C136.309 71.7344 136.953 72.0098 137.738 72.0098C138.465 72.0098 139.092 71.7109 139.619 71.1133C140.146 70.5039 140.41 69.8066 140.41 69.0215V51.127C140.41 51.0332 140.457 50.9863 140.551 50.9863H144.594C144.688 50.9863 144.734 51.0449 144.734 51.1621L144.77 69.0215C144.77 70.334 144.453 71.5469 143.82 72.6602C143.176 73.7852 142.326 74.6816 141.271 75.3496C140.217 76.0176 139.039 76.3516 137.738 76.3516ZM154.139 76.3516C152.861 76.3516 151.684 76.0234 150.605 75.3672C149.539 74.7109 148.678 73.8379 148.021 72.748C147.377 71.6465 147.055 70.4395 147.055 69.127L147.09 57.7188C147.09 56.3828 147.412 55.1816 148.057 54.1152C148.689 53.0371 149.545 52.1758 150.623 51.5312C151.701 50.875 152.873 50.5469 154.139 50.5469C155.451 50.5469 156.629 50.8691 157.672 51.5137C158.727 52.1582 159.57 53.0254 160.203 54.1152C160.848 55.1934 161.17 56.3945 161.17 57.7188L161.205 69.127C161.205 70.4395 160.889 71.6406 160.256 72.7305C159.611 73.832 158.756 74.7109 157.689 75.3672C156.623 76.0234 155.439 76.3516 154.139 76.3516ZM154.139 72.0098C154.865 72.0098 155.498 71.7168 156.037 71.1309C156.576 70.5332 156.846 69.8652 156.846 69.127L156.811 57.7188C156.811 56.9219 156.559 56.248 156.055 55.6973C155.551 55.1465 154.912 54.8711 154.139 54.8711C153.4 54.8711 152.768 55.1406 152.24 55.6797C151.713 56.2188 151.449 56.8984 151.449 57.7188V69.127C151.449 69.9121 151.713 70.5918 152.24 71.166C152.768 71.7285 153.4 72.0098 154.139 72.0098Z" fill="#C1C1F3"/>
</g>
<defs>
<filter id="filter0_d_96_140" x="62.7051" y="50.5469" width="102.5" height="33.8047" filterUnits="userSpaceOnUse" color-interpolation-filters="sRGB">
<feFlood flood-opacity="0" result="BackgroundImageFix"/>
<feColorMatrix in="SourceAlpha" type="matrix" values="0 0 0 0 0 0 0 0 0 0 0 0 0 0 0 0 0 0 127 0" result="hardAlpha"/>
<feOffset dy="4"/>
<feGaussianBlur stdDeviation="2"/>
<feComposite in2="hardAlpha" operator="out"/>
<feColorMatrix type="matrix" values="0 0 0 0 0.505882 0 0 0 0 0.505882 0 0 0 0 0.901961 0 0 0 1 0"/>
<feBlend mode="normal" in2="BackgroundImageFix" result="effect1_dropShadow_96_140"/>
<feBlend mode="normal" in="SourceGraphic" in2="effect1_dropShadow_96_140" result="shape"/>
</filter>
</defs>
</svg>
